0
SECTION
2
HEADER
9
$INSUNITS
70
4
9
$ACADVER
1
AC1014
9
$HANDSEED
5
FFFF
0
ENDSEC
0
SECTION
2
TABLES
0
TABLE
2
VPORT
5
8
100
AcDbSymbolTable
0
ENDTAB
0
TABLE
2
LTYPE
5
5
100
AcDbSymbolTable
0
LTYPE
5
14
100
AcDbSymbolTableRecord
100
AcDbLinetypeTableRecord
2
BYBLOCK
70
0
0
LTYPE
5
15
100
AcDbSymbolTableRecord
100
AcDbLinetypeTableRecord
2
BYLAYER
70
0
0
ENDTAB
0
TABLE
2
LAYER
5
2
100
AcDbSymbolTable
70
2
0
LAYER
5
50
100
AcDbSymbolTableRecord
100
AcDbLayerTableRecord
2
0
70
0
6
CONTINUOUS
0
ENDTAB
0
TABLE
2
STYLE
5
3
100
AcDbSymbolTable
70
1
0
STYLE
5
11
100
AcDbSymbolTableRecord
100
AcDbTextStyleTableRecord
2
STANDARD
70
0
0
ENDTAB
0
TABLE
2
VIEW
5
6
100
AcDbSymbolTable
70
0
0
ENDTAB
0
TABLE
2
UCS
5
7
100
AcDbSymbolTable
70
0
0
ENDTAB
0
TABLE
2
APPID
5
9
100
AcDbSymbolTable
70
2
0
APPID
5
12
100
AcDbSymbolTableRecord
100
AcDbRegAppTableRecord
2
ACAD
70
0
0
ENDTAB
0
TABLE
2
DIMSTYLE
5
A
100
AcDbSymbolTable
70
1
0
ENDTAB
0
TABLE
2
BLOCK_RECORD
5
1
100
AcDbSymbolTable
70
1
0
BLOCK_RECORD
5
1F
100
AcDbSymbolTableRecord
100
AcDbBlockTableRecord
2
*MODEL_SPACE
0
BLOCK_RECORD
5
1B
100
AcDbSymbolTableRecord
100
AcDbBlockTableRecord
2
*PAPER_SPACE
0
ENDTAB
0
ENDSEC
0
SECTION
2
BLOCKS
0
BLOCK
5
20
100
AcDbEntity
100
AcDbBlockBegin
2
*MODEL_SPACE
0
ENDBLK
5
21
100
AcDbEntity
100
AcDbBlockEnd
0
BLOCK
5
1C
100
AcDbEntity
100
AcDbBlockBegin
2
*PAPER_SPACE
0
ENDBLK
5
1D
100
AcDbEntity
100
AcDbBlockEnd
0
ENDSEC
0
SECTION
2
ENTITIES
0
CIRCLE
5
100
100
AcDbEntity
8
0
100
AcDbCircle
10
141.89999999484908
20
-91.750000006959439
30
0
40
1.5999999999999737
210
0
220
0
230
1
0
ARC
5
101
100
AcDbEntity
8
0
100
AcDbCircle
10
-151.90000000000003
20
-98.549999999999457
30
0
40
1.9999999999999929
210
0
220
0
230
1
100
AcDbArc
50
180
51
270.0000000000008
0
ARC
5
102
100
AcDbEntity
8
0
100
AcDbCircle
10
-158.90000000000003
20
-67.897674732956801
30
0
40
5
210
0
220
0
230
1
100
AcDbArc
50
180
51
215.53767779197511
0
LINE
5
103
100
AcDbEntity
8
0
100
AcDbLine
10
-153.90000000000003
20
98.550000000000594
30
0
11
-153.90000000000003
21
85.10232526704327
31
0
0
ARC
5
104
100
AcDbEntity
8
0
100
AcDbCircle
10
-158.90000000000001
20
67.897674732957995
30
0
40
5.000000000000016
210
0
220
0
230
1
100
AcDbArc
50
144.46232220802568
51
180
0
CIRCLE
5
105
100
AcDbEntity
8
0
100
AcDbCircle
10
141.90000000000146
20
91.75019999999698
30
0
40
1.5999999999999694
210
0
220
0
230
1
0
LINE
5
106
100
AcDbEntity
8
0
100
AcDbLine
10
-153.90000000000003
20
-85.102325267042062
30
0
11
-153.90000000000003
21
-98.549999999999457
31
0
0
ARC
5
107
100
AcDbEntity
8
0
100
AcDbCircle
10
152.49999999999997
20
-89.150000000000645
30
0
40
11.400000000000006
210
0
220
0
230
1
100
AcDbArc
50
-89.999999999999133
51
0
0
LINE
5
108
100
AcDbEntity
8
0
100
AcDbLine
10
-151.90000000000003
20
100.55000000000062
30
0
11
152.5
21
100.54999999999934
31
0
0
LINE
5
109
100
AcDbEntity
8
0
100
AcDbLine
10
152.50000000000014
20
-100.55000000000065
30
0
11
-151.90000000000001
21
-100.54999999999944
31
0
0
LINE
5
110
100
AcDbEntity
8
0
100
AcDbLine
10
-153.90000000000003
20
100.55000000000062
30
0
11
-151.90000000000003
21
100.55000000000062
31
0
0
LINE
5
111
100
AcDbEntity
8
0
100
AcDbLine
10
-163.90000000000003
20
6.106226635438361e-13
30
0
11
-163.90000000000003
21
67.897674732957995
31
0
0
LINE
5
112
100
AcDbEntity
8
0
100
AcDbLine
10
-163.90000000000003
20
6.106226635438361e-13
30
0
11
-163.90000000000003
21
-67.897674732956801
31
0
0
ARC
5
113
100
AcDbEntity
8
0
100
AcDbCircle
10
-151.90000000000003
20
98.550000000000594
30
0
40
2.0000000000000284
210
0
220
-0
230
1
100
AcDbArc
50
90
51
180
0
LINE
5
114
100
AcDbEntity
8
0
100
AcDbLine
10
-162.96866735603371
20
70.803865701553491
30
0
11
-154.83133264396636
21
82.19613429844776
31
0
0
ARC
5
115
100
AcDbEntity
8
0
100
AcDbCircle
10
152.49999999999997
20
89.149999999999338
30
0
40
11.400000000000059
210
0
220
-0
230
1
100
AcDbArc
50
0
51
89.999999999999858
0
CIRCLE
5
116
100
AcDbEntity
8
0
100
AcDbCircle
10
-131.90000000515096
20
-91.750000006959439
30
0
40
1.600000000000001
210
0
220
0
230
1
0
LINE
5
117
100
AcDbEntity
8
0
100
AcDbLine
10
163.90000000000003
20
89.150000000006671
30
0
11
163.90000000000001
21
-89.149999999993312
31
0
0
CIRCLE
5
118
100
AcDbEntity
8
0
100
AcDbCircle
10
-131.89999999999864
20
91.75019999999698
30
0
40
1.5999999999999968
210
0
220
0
230
1
0
LINE
5
119
100
AcDbEntity
8
0
100
AcDbLine
10
-162.96866735603368
20
-70.80386570155234
30
0
11
-154.83133264396631
21
-82.196134298446552
31
0
0
ARC
5
120
100
AcDbEntity
8
0
100
AcDbCircle
10
-158.90000000000003
20
-85.102325267042062
30
0
40
5.0000000000000533
210
0
220
0
230
1
100
AcDbArc
50
0
51
35.537677791974282
0
LINE
5
121
100
AcDbEntity
8
0
100
AcDbLine
10
-153.90000000000003
20
98.550000000000594
30
0
11
-153.90000000000003
21
100.55000000000062
31
0
0
ARC
5
122
100
AcDbEntity
8
0
100
AcDbCircle
10
-158.90000000000003
20
85.102325267043227
30
0
40
4.9999999999999938
210
0
220
0
230
1
100
AcDbArc
50
-35.537677791974275
51
0
0
SPLINE
5
123
100
AcDbEntity
8
0
100
AcDbSpline
70
4
71
3
72
8
73
4
74
0
42
0.000000001
43
0.0000000001
44
0.0000000001
40
0
40
0
40
0
40
0
40
1
40
1
40
1
40
1
41
1
41
1
41
1
41
1
10
146.15106045458467
20
-65.846360798884206
30
0
10
135.80016335476191
20
-68.660006186325134
30
0
10
123.26536294821652
20
-66.572145978553252
30
0
10
113.18622556332501
20
-63.484557636413747
30
0
0
SPLINE
5
124
100
AcDbEntity
8
0
100
AcDbSpline
70
4
71
3
72
8
73
4
74
0
42
0.000000001
43
0.0000000001
44
0.0000000001
40
0
40
0
40
0
40
0
40
1
40
1
40
1
40
1
41
1
41
1
41
1
41
1
10
113.18622556332501
20
-63.484557636413747
30
0
10
93.933817897774304
20
-57.308289755094819
30
0
10
77.498333244062977
20
-44.231059684563462
30
0
10
59.608003859259199
20
-34.877708455134211
30
0
0
SPLINE
5
125
100
AcDbEntity
8
0
100
AcDbSpline
70
4
71
3
72
8
73
4
74
0
42
0.000000001
43
0.0000000001
44
0.0000000001
40
0
40
0
40
0
40
0
40
1
40
1
40
1
40
1
41
1
41
1
41
1
41
1
10
59.608003859259199
20
-34.877708455134211
30
0
10
50.161884097792239
20
-30.882070939946942
30
0
10
37.174148057438444
20
-30.064607059169589
30
0
10
28.457086871601636
20
-35.513998498726657
30
0
0
SPLINE
5
126
100
AcDbEntity
8
0
100
AcDbSpline
70
0
71
2
72
6
73
3
74
0
42
0.000000001
43
0.0000000001
44
0.0000000001
40
0
40
0
40
0
40
1
40
1
40
1
10
28.457086871601636
20
-35.513998498726657
30
0
10
26.369224517084664
20
-36.996127969730672
30
0
10
22.585324244238461
20
-35.937464656639868
30
0
0
SPLINE
5
127
100
AcDbEntity
8
0
100
AcDbSpline
70
4
71
3
72
8
73
4
74
0
42
0.000000001
43
0.0000000001
44
0.0000000001
40
0
40
0
40
0
40
0
40
1
40
1
40
1
40
1
41
1
41
1
41
1
41
1
10
22.585324244238461
20
-35.937464656639868
30
0
10
21.37495344731958
20
-36.844422567594826
30
0
10
20.01833960864694
20
-37.190399814356148
30
0
10
18.376858679987507
20
-36.604313942004019
30
0
0
SPLINE
5
128
100
AcDbEntity
8
0
100
AcDbSpline
70
4
71
3
72
8
73
4
74
0
42
0.000000001
43
0.0000000001
44
0.0000000001
40
0
40
0
40
0
40
0
40
1
40
1
40
1
40
1
41
1
41
1
41
1
41
1
10
18.376858679987507
20
-36.604313942004019
30
0
10
14.017778520323354
20
-33.423956612456614
30
0
10
9.476442043520521
20
-38.32873573373633
30
0
10
4.8477910682931658
20
-35.785759254504022
30
0
0
SPLINE
5
129
100
AcDbEntity
8
0
100
AcDbSpline
70
4
71
3
72
8
73
4
74
0
42
0.000000001
43
0.0000000001
44
0.0000000001
40
0
40
0
40
0
40
0
40
1
40
1
40
1
40
1
41
1
41
1
41
1
41
1
10
4.8477910682931658
20
-35.785759254504022
30
0
10
0.21804095957429936
20
-38.32873573373633
30
0
10
-4.3222130372747714
20
-33.423956612456614
30
0
10
-8.6812765434011752
20
-36.604313942004019
30
0
0
SPLINE
5
130
100
AcDbEntity
8
0
100
AcDbSpline
70
4
71
3
72
8
73
4
74
0
42
0.000000001
43
0.0000000001
44
0.0000000001
40
0
40
0
40
0
40
0
40
1
40
1
40
1
40
1
41
1
41
1
41
1
41
1
10
-8.6812765434011752
20
-36.604313942004019
30
0
10
-10.323848278783245
20
-37.190399814356148
30
0
10
-11.679362983964374
20
-36.844422567594826
30
0
10
-12.889742107652111
20
-35.937464656639868
30
0
0
SPLINE
5
131
100
AcDbEntity
8
0
100
AcDbSpline
70
0
71
2
72
6
73
3
74
0
42
0.000000001
43
0.0000000001
44
0.0000000001
40
0
40
0
40
0
40
1
40
1
40
1
10
-12.889742107652111
20
-35.937464656639868
30
0
10
-16.675823993943624
20
-36.996127969730672
30
0
10
-18.76369467522947
20
-35.513998498726657
30
0
0
SPLINE
5
132
100
AcDbEntity
8
0
100
AcDbSpline
70
4
71
3
72
8
73
4
74
0
42
0.000000001
43
0.0000000001
44
0.0000000001
40
0
40
0
40
0
40
0
40
1
40
1
40
1
40
1
41
1
41
1
41
1
41
1
10
-18.76369467522947
20
-35.513998498726657
30
0
10
-27.479656727574753
20
-30.064607059169589
30
0
10
-40.466301961205886
20
-30.882070939946942
30
0
10
-49.911339242719102
20
-34.877708455134211
30
0
0
SPLINE
5
133
100
AcDbEntity
8
0
100
AcDbSpline
70
4
71
3
72
8
73
4
74
0
42
0.000000001
43
0.0000000001
44
0.0000000001
40
0
40
0
40
0
40
0
40
1
40
1
40
1
40
1
41
1
41
1
41
1
41
1
10
-49.911339242719102
20
-34.877708455134211
30
0
10
-67.80385024096816
20
-44.231059684563462
30
0
10
-84.238244087956829
20
-57.308289755094819
30
0
10
-103.49064967181533
20
-63.484558156836798
30
0
0
SPLINE
5
134
100
AcDbEntity
8
0
100
AcDbSpline
70
4
71
3
72
8
73
4
74
0
42
0.000000001
43
0.0000000001
44
0.0000000001
40
0
40
0
40
0
40
0
40
1
40
1
40
1
40
1
41
1
41
1
41
1
41
1
10
-103.49064967181533
20
-63.484558156836798
30
0
10
-113.57088619019835
20
-66.572146433923422
30
0
10
-126.10458850409834
20
-68.660006706748192
30
0
10
-136.45657745148986
20
-65.846361319307263
30
0
0
SPLINE
5
135
100
AcDbEntity
8
0
100
AcDbSpline
70
4
71
3
72
8
73
4
74
0
42
0.000000001
43
0.0000000001
44
0.0000000001
40
0
40
0
40
0
40
0
40
1
40
1
40
1
40
1
41
1
41
1
41
1
41
1
10
-136.45657745148986
20
-65.846361319307263
30
0
10
-137.81863699700682
20
-64.938311300572039
30
0
10
-139.36408530022948
20
-63.302293252717732
30
0
10
-139.00063849236815
20
-61.305020158696948
30
0
0
SPLINE
5
136
100
AcDbEntity
8
0
100
AcDbSpline
70
4
71
3
72
8
73
4
74
0
42
0.000000001
43
0.0000000001
44
0.0000000001
40
0
40
0
40
0
40
0
40
1
40
1
40
1
40
1
41
1
41
1
41
1
41
1
10
-139.00063849236815
20
-61.305020158696948
30
0
10
-138.27377818372099
20
-60.124118837673244
30
0
10
-137.54578543450683
20
-58.489192116964631
30
0
10
-136.00253539826721
20
-58.21634055446463
30
0
0
SPLINE
5
137
100
AcDbEntity
8
0
100
AcDbSpline
70
4
71
3
72
8
73
4
74
0
42
0.000000001
43
0.0000000001
44
0.0000000001
40
0
40
0
40
0
40
0
40
1
40
1
40
1
40
1
41
1
41
1
41
1
41
1
10
-136.00253539826721
20
-58.21634055446463
30
0
10
-98.949296541474752
20
-63.756318912614162
30
0
10
-78.972195608876632
20
-26.977020343352134
30
0
10
-47.912948019765302
20
-17.260230632830435
30
0
0
SPLINE
5
138
100
AcDbEntity
8
0
100
AcDbSpline
70
4
71
3
72
8
73
4
74
0
42
0.000000001
43
0.0000000001
44
0.0000000001
40
0
40
0
40
0
40
0
40
1
40
1
40
1
40
1
41
1
41
1
41
1
41
1
10
-47.912948019765302
20
-17.260230632830435
30
0
10
-47.852928669713428
20
-16.866232909966286
30
0
10
-49.669013614915301
20
-15.353542115498362
30
0
10
-51.637911422513412
20
-14.293790077377135
30
0
0
SPLINE
5
139
100
AcDbEntity
8
0
100
AcDbSpline
70
4
71
3
72
8
73
4
74
0
42
0.000000001
43
0.0000000001
44
0.0000000001
40
0
40
0
40
0
40
0
40
1
40
1
40
1
40
1
41
1
41
1
41
1
41
1
10
-51.637911422513412
20
-14.293790077377135
30
0
10
-56.026451690457755
20
-11.870866870094119
30
0
10
-62.535603494904926
20
-12.810567717958268
30
0
10
-62.988529761098313
20
-6.8165639601238315
30
0
0
SPLINE
5
140
100
AcDbEntity
8
0
100
AcDbSpline
70
4
71
3
72
8
73
4
74
0
42
0.000000001
43
0.0000000001
44
0.0000000001
40
0
40
0
40
0
40
0
40
1
40
1
40
1
40
1
41
1
41
1
41
1
41
1
10
-62.988529761098313
20
-6.8165639601238315
30
0
10
-61.808726532720016
20
-3.0915922306068477
30
0
10
-57.268472535870956
20
-1.7295201949365691
30
0
10
-53.998617012761514
20
-0.27794788401203974
30
0
0
SPLINE
5
141
100
AcDbEntity
8
0
100
AcDbSpline
70
4
71
3
72
8
73
4
74
0
42
0.000000001
43
0.0000000001
44
0.0000000001
40
0
40
0
40
0
40
0
40
1
40
1
40
1
40
1
41
1
41
1
41
1
41
1
10
-53.998617012761514
20
-0.27794788401203974
30
0
10
-46.279102738164362
20
4.0844005324356036
30
0
10
-37.014156813882281
20
0.45111069161815287
30
0
10
-30.023701114915298
20
-3.0915922306068477
30
0
0
SPLINE
5
142
100
AcDbEntity
8
0
100
AcDbSpline
70
4
71
3
72
8
73
4
74
0
42
0.000000001
43
0.0000000001
44
0.0000000001
40
0
40
0
40
0
40
0
40
1
40
1
40
1
40
1
41
1
41
1
41
1
41
1
10
-30.023701114915298
20
-3.0915922306068477
30
0
10
-29.207328040860574
20
-3.9101469181068449
30
0
10
-27.844169361852096
20
-3.4561215184219396
30
0
10
-27.210052604936052
20
-2.6375668309219424
30
0
0
SPLINE
5
143
100
AcDbEntity
8
0
100
AcDbSpline
70
4
71
3
72
8
73
4
74
0
42
0.000000001
43
0.0000000001
44
0.0000000001
40
0
40
0
40
0
40
0
40
1
40
1
40
1
40
1
41
1
41
1
41
1
41
1
10
-27.210052604936052
20
-2.6375668309219424
30
0
10
-27.754656596444534
20
14.164628724049759
30
0
10
-14.949201853536049
20
25.335172358941254
30
0
10
-12.588479609750198
20
40.954292265366732
30
0
0
SPLINE
5
144
100
AcDbEntity
8
0
100
AcDbSpline
70
4
71
3
72
8
73
4
74
0
42
0.000000001
43
0.0000000001
44
0.0000000001
40
0
40
0
40
0
40
0
40
1
40
1
40
1
40
1
41
1
41
1
41
1
41
1
10
-12.588479609750198
20
40.954292265366732
30
0
10
-11.22532093074172
20
48.219781140278997
30
0
10
-15.766657407544535
20
53.575317404460137
30
0
10
-16.311261399053034
20
60.387871686410136
30
0
0
SPLINE
5
145
100
AcDbEntity
8
0
100
AcDbSpline
70
4
71
3
72
8
73
4
74
0
42
0.000000001
43
0.0000000001
44
0.0000000001
40
0
40
0
40
0
40
0
40
1
40
1
40
1
40
1
41
1
41
1
41
1
41
1
10
-16.311261399053034
20
60.387871686410136
30
0
10
-16.371280749104908
20
62.901381812285599
30
0
10
-14.404581208489819
20
61.236985615681832
30
0
10
-13.344816680215281
20
69.560049078654473
30
0
0
SPLINE
5
146
100
AcDbEntity
8
0
100
AcDbSpline
70
4
71
3
72
8
73
4
74
0
42
0.000000001
43
0.0000000001
44
0.0000000001
40
0
40
0
40
0
40
0
40
1
40
1
40
1
40
1
41
1
41
1
41
1
41
1
10
-13.344816680215281
20
69.560049078654473
30
0
10
-12.889692147038865
20
71.073830679845031
30
0
10
-9.1057918741926436
20
75.312855485867686
30
0
10
-5.6853217556700031
20
77.097298709344102
30
0
0
SPLINE
5
147
100
AcDbEntity
8
0
100
AcDbSpline
70
4
71
3
72
8
73
4
74
0
42
0.000000001
43
0.0000000001
44
0.0000000001
40
0
40
0
40
0
40
0
40
1
40
1
40
1
40
1
41
1
41
1
41
1
41
1
10
-5.6853217556700031
20
77.097298709344102
30
0
10
-2.5278776123747093
20
78.341501168202569
30
0
10
1.1316040799394322
20
78.703848842572398
30
0
10
4.8478410289064122
20
78.606708756875207
30
0
0
SPLINE
5
148
100
AcDbEntity
8
0
100
AcDbSpline
70
4
71
3
72
8
73
4
74
0
42
0.000000001
43
0.0000000001
44
0.0000000001
40
0
40
0
40
0
40
0
40
1
40
1
40
1
40
1
41
1
41
1
41
1
41
1
10
4.8478410289064122
20
78.606708756875207
30
0
10
8.5629871711507555
20
78.703848842572398
30
0
10
12.222477190233771
20
78.341501168202569
30
0
10
15.379913006760191
20
77.097298709344102
30
0
0
SPLINE
5
149
100
AcDbEntity
8
0
100
AcDbSpline
70
4
71
3
72
8
73
4
74
0
42
0.000000001
43
0.0000000001
44
0.0000000001
40
0
40
0
40
0
40
0
40
1
40
1
40
1
40
1
41
1
41
1
41
1
41
1
10
15.379913006760191
20
77.097298709344102
30
0
10
18.800383125282831
20
75.312855485867686
30
0
10
22.585374204851707
20
71.073830679845031
30
0
10
23.036127184368684
20
69.560049078654473
30
0
0
SPLINE
5
150
100
AcDbEntity
8
0
100
AcDbSpline
70
4
71
3
72
8
73
4
74
0
42
0.000000001
43
0.0000000001
44
0.0000000001
40
0
40
0
40
0
40
0
40
1
40
1
40
1
40
1
41
1
41
1
41
1
41
1
10
23.036127184368684
20
69.560049078654473
30
0
10
24.099155806042258
20
61.236985615681832
30
0
10
26.065872000195096
20
62.901381812285599
30
0
10
26.00584432337433
20
60.387871686410136
30
0
0
SPLINE
5
151
100
AcDbEntity
8
0
100
AcDbSpline
70
4
71
3
72
8
73
4
74
0
42
0.000000001
43
0.0000000001
44
0.0000000001
40
0
40
0
40
0
40
0
40
1
40
1
40
1
40
1
41
1
41
1
41
1
41
1
10
26.00584432337433
20
60.387871686410136
30
0
10
25.460141198374355
20
53.575317404460137
30
0
10
20.919887201525267
20
48.219781140278997
30
0
10
22.28196340058
20
40.954292265366732
30
0
0
SPLINE
5
152
100
AcDbEntity
8
0
100
AcDbSpline
70
4
71
3
72
8
73
4
74
0
42
0.000000001
43
0.0000000001
44
0.0000000001
40
0
40
0
40
0
40
0
40
1
40
1
40
1
40
1
41
1
41
1
41
1
41
1
10
22.28196340058
20
40.954292265366732
30
0
10
24.643768124319632
20
25.335180685710146
30
0
10
37.44814038727435
20
14.164637050818634
30
0
10
36.902437262274347
20
-2.6375668309219424
30
0
0
SPLINE
5
153
100
AcDbEntity
8
0
100
AcDbSpline
70
4
71
3
72
8
73
4
74
0
42
0.000000001
43
0.0000000001
44
0.0000000001
40
0
40
0
40
0
40
0
40
1
40
1
40
1
40
1
41
1
41
1
41
1
41
1
10
36.902437262274347
20
-2.6375668309219424
30
0
10
37.539818112589444
20
-3.4561215184219396
30
0
10
38.902985118366772
20
-3.9101469181068449
30
0
10
39.719358192421495
20
-3.0915922306068477
30
0
0
SPLINE
5
154
100
AcDbEntity
8
0
100
AcDbSpline
70
4
71
3
72
8
73
4
74
0
42
0.000000001
43
0.0000000001
44
0.0000000001
40
0
40
0
40
0
40
0
40
1
40
1
40
1
40
1
41
1
41
1
41
1
41
1
10
39.719358192421495
20
-3.0915922306068477
30
0
10
46.709813891388507
20
0.45111069161815287
30
0
10
55.972578202225293
20
4.0844005324356036
30
0
10
63.694282417036604
20
-0.27794788401203974
30
0
0
SPLINE
5
155
100
AcDbEntity
8
0
100
AcDbSpline
70
4
71
3
72
8
73
4
74
0
42
0.000000001
43
0.0000000001
44
0.0000000001
40
0
40
0
40
0
40
0
40
1
40
1
40
1
40
1
41
1
41
1
41
1
41
1
10
63.694282417036604
20
-0.27794788401203974
30
0
10
66.963047133423416
20
-1.7295201949365691
30
0
10
71.50329280350357
20
-3.0915922306068477
30
0
10
72.68419516537341
20
-6.8165639601238315
30
0
0
SPLINE
5
156
100
AcDbEntity
8
0
100
AcDbSpline
70
4
71
3
72
8
73
4
74
0
42
0.000000001
43
0.0000000001
44
0.0000000001
40
0
40
0
40
0
40
0
40
1
40
1
40
1
40
1
41
1
41
1
41
1
41
1
10
72.68419516537341
20
-6.8165639601238315
30
0
10
72.229078958965843
20
-12.810567717958268
30
0
10
65.719935481287536
20
-11.870866870094119
30
0
10
61.333568500019609
20
-14.293785913992698
30
0
0
SPLINE
5
157
100
AcDbEntity
8
0
100
AcDbSpline
70
4
71
3
72
8
73
4
74
0
42
0.000000001
43
0.0000000001
44
0.0000000001
40
0
40
0
40
0
40
0
40
1
40
1
40
1
40
1
41
1
41
1
41
1
41
1
10
61.333568500019609
20
-14.293785913992698
30
0
10
59.363579885698869
20
-15.353542115498362
30
0
10
57.547478286959247
20
-16.866228746581847
30
0
10
57.60641515705737
20
-17.260226469445996
30
0
0
SPLINE
5
158
100
AcDbEntity
8
0
100
AcDbSpline
70
4
71
3
72
8
73
4
74
0
42
0.000000001
43
0.0000000001
44
0.0000000001
40
0
40
0
40
0
40
0
40
1
40
1
40
1
40
1
41
1
41
1
41
1
41
1
10
57.60641515705737
20
-17.260226469445996
30
0
10
88.666745226122444
20
-26.977016179967698
30
0
10
108.64602777216584
20
-63.756316830921946
30
0
10
145.69817582223567
20
-58.216338472772414
30
0
0
SPLINE
5
159
100
AcDbEntity
8
0
100
AcDbSpline
70
4
71
3
72
8
73
4
74
0
42
0.000000001
43
0.0000000001
44
0.0000000001
40
0
40
0
40
0
40
0
40
1
40
1
40
1
40
1
41
1
41
1
41
1
41
1
10
145.69817582223567
20
-58.216338472772414
30
0
10
147.24142429720612
20
-58.489190035272415
30
0
10
147.96830073896797
20
-60.124116755981021
30
0
10
148.69299452643841
20
-61.305018077004725
30
0
0
SPLINE
5
160
100
AcDbEntity
8
0
100
AcDbSpline
70
4
71
3
72
8
73
4
74
0
42
0.000000001
43
0.0000000001
44
0.0000000001
40
0
40
0
40
0
40
0
40
1
40
1
40
1
40
1
41
1
41
1
41
1
41
1
10
148.69299452643841
20
-61.305018077004725
30
0
10
149.04551869522783
20
-63.300108776945649
30
0
10
147.50336167750882
20
-64.93612656458842
30
0
10
146.14128664940597
20
-65.844176583323659
30
0
0
ENDSEC
0
SECTION
2
OBJECTS
0
DICTIONARY
5
C
100
AcDbDictionary
3
ACAD_GROUP
350
D
3
ACAD_MLINESTYLE
350
17
0
DICTIONARY
5
D
100
AcDbDictionary
0
DICTIONARY
5
1A
330
C
100
AcDbDictionary
0
DICTIONARY
5
17
100
AcDbDictionary
0
ENDSEC
0
EOF
